<?xml version="1.0" encoding="UTF-8" standalone="no"?>
<svg xmlns:xlink="http://www.w3.org/1999/xlink" class="card" face="2S" height="3.5in"
    preserveAspectRatio="none" viewBox="-120 -168 240 336" width="2.5in"
    xmlns="http://www.w3.org/2000/svg">
    <defs>
        <symbol id="SS2" preserveAspectRatio="xMinYMid" viewBox="-600 -600 1200 1200">
            <path
                d="M0 -500C100 -250 355 -100 355 185A150 150 0 0 1 55 185A10 10 0 0 0 35 185C35 385 85 400 130 500L-130 500C-85 400 -35 385 -35 185A10 10 0 0 0 -55 185A150 150 0 0 1 -355 185C-355 -100 -100 -250 0 -500Z"
                fill="black"></path>
        </symbol>
        <symbol id="VS2" preserveAspectRatio="xMinYMid" viewBox="-500 -500 1000 1000">
            <path
                d="M-225 -225C-245 -265 -200 -460 0 -460C 200 -460 225 -325 225 -225C225 -25 -225 160 -225 460L225 460L225 300"
                fill="none" stroke="black" stroke-linecap="square" stroke-miterlimit="1.5"
                stroke-width="80"></path>
        </symbol>
    </defs>
    <rect fill="white" height="335" rx="12" ry="12" stroke="black" width="239" x="-119.5"
        y="-167.5"></rect>
    <use height="70" width="70" x="-122" y="-156" xlink:href="#VS2"></use>
    <use height="58.558" width="58.558" x="-116.279" y="-81" xlink:href="#SS2"></use>
    <use height="40" width="40" x="-20" y="-107.668" xlink:href="#SS2"></use>
    <g transform="rotate(180)">
        <use height="70" width="70" x="-122" y="-156" xlink:href="#VS2"></use>
        <use height="58.558" width="58.558" x="-116.279" y="-81" xlink:href="#SS2"></use>
        <use height="40" width="40" x="-20" y="-107.668" xlink:href="#SS2"></use>
    </g>
</svg>