<?xml version="1.0" encoding="UTF-8" standalone="no"?>
<svg xmlns:xlink="http://www.w3.org/1999/xlink" class="card" face="3H" height="3.5in"
    preserveAspectRatio="none" viewBox="-120 -168 240 336" width="2.5in"
    xmlns="http://www.w3.org/2000/svg">
    <defs>
        <symbol id="SH3" preserveAspectRatio="xMinYMid" viewBox="-600 -600 1200 1200">
            <path
                d="M0 -300C0 -400 100 -500 200 -500C300 -500 400 -400 400 -250C400 0 0 400 0 500C0 400 -400 0 -400 -250C-400 -400 -300 -500 -200 -500C-100 -500 0 -400 -0 -300Z"
                fill="red"></path>
        </symbol>
        <symbol id="VH3" preserveAspectRatio="xMinYMid" viewBox="-500 -500 1000 1000">
            <path
                d="M-250 -320L-250 -460L200 -460L-110 -80C-100 -90 -50 -120 0 -120C200 -120 250 0 250 150C250 350 170 460 -30 460C-230 460 -260 300 -260 300"
                fill="none" stroke="red" stroke-linecap="square" stroke-miterlimit="1.5"
                stroke-width="80"></path>
        </symbol>
    </defs>
    <rect fill="white" height="335" rx="12" ry="12" stroke="black" width="239" x="-119.5"
        y="-167.5"></rect>
    <use height="70" width="70" x="-122" y="-156" xlink:href="#VH3"></use>
    <use height="58.558" width="58.558" x="-116.279" y="-81" xlink:href="#SH3"></use>
    <use height="40" width="40" x="-20" y="-107.668" xlink:href="#SH3"></use>
    <use height="40" width="40" x="-20" y="-20" xlink:href="#SH3"></use>
    <g transform="rotate(180)">
        <use height="70" width="70" x="-122" y="-156" xlink:href="#VH3"></use>
        <use height="58.558" width="58.558" x="-116.279" y="-81" xlink:href="#SH3"></use>
        <use height="40" width="40" x="-20" y="-107.668" xlink:href="#SH3"></use>
    </g>
</svg>