<?xml version="1.0" encoding="UTF-8" standalone="no"?>
<svg xmlns:xlink="http://www.w3.org/1999/xlink" class="card" face="7C" height="3.5in"
    preserveAspectRatio="none" viewBox="-120 -168 240 336" width="2.5in"
    xmlns="http://www.w3.org/2000/svg">
    <defs>
        <symbol id="SC7" preserveAspectRatio="xMinYMid" viewBox="-600 -600 1200 1200">
            <path
                d="M30 150C35 385 85 400 130 500L-130 500C-85 400 -35 385 -30 150A10 10 0 0 0 -50 150A210 210 0 1 1 -124 -51A10 10 0 0 0 -110 -65A230 230 0 1 1 110 -65A10 10 0 0 0 124 -51A210 210 0 1 1 50 150A10 10 0 0 0 30 150Z"
                fill="green"></path>
        </symbol>
        <symbol id="VC7" preserveAspectRatio="xMinYMid" viewBox="-500 -500 1000 1000">
            <path d="M-265 -320L-265 -460L265 -460C135 -200 -90 100 -90 460" fill="none"
                stroke="green" stroke-linecap="square" stroke-miterlimit="1.5"
                stroke-width="80"></path>
        </symbol>
    </defs>
    <rect fill="white" height="335" rx="12" ry="12" stroke="black" width="239" x="-119.5"
        y="-167.5"></rect>
    <use height="70" width="70" x="-122" y="-156" xlink:href="#VC7"></use>
    <use height="58.558" width="58.558" x="-116.279" y="-81" xlink:href="#SC7"></use>
    <use height="40" width="40" x="-59.668" y="-107.718" xlink:href="#SC7"></use>
    <use height="40" width="40" x="19.668" y="-107.718" xlink:href="#SC7"></use>
    <use height="40" width="40" x="-59.668" y="-20" xlink:href="#SC7"></use>
    <use height="40" width="40" x="19.668" y="-20" xlink:href="#SC7"></use>
    <use height="40" width="40" x="-20" y="-63.859" xlink:href="#SC7"></use>
    <g transform="rotate(180)">
        <use height="70" width="70" x="-122" y="-156" xlink:href="#VC7"></use>
        <use height="58.558" width="58.558" x="-116.279" y="-81" xlink:href="#SC7"></use>
        <use height="40" width="40" x="-59.668" y="-107.718" xlink:href="#SC7"></use>
        <use height="40" width="40" x="19.668" y="-107.718" xlink:href="#SC7"></use>
    </g>
</svg>